<svg xmlns="http://www.w3.org/2000/svg" viewBox="0 0 500 500"><defs><style>.cls-1{isolation:isolate;}.cls-2{fill:#375163;}.cls-3{fill:#b7a290;}.cls-4{fill:#957c6b;}.cls-5{fill:#38302d;}.cls-6{fill:#201c1c;}.cls-7{fill:#e0c1ad;}.cls-8{fill:#c08c72;}.cls-9{fill:#b7795f;}.cls-10,.cls-17{fill:#fff;}.cls-10,.cls-13{mix-blend-mode:overlay;}.cls-11{fill:#f1e3d9;}.cls-12{fill:none;}.cls-13{fill:#c7e0df;opacity:0.6;}.cls-14{fill:#292626;}.cls-15{fill:#2b2929;}.cls-16{fill:#1a1919;}.cls-18{fill:#95624e;}.cls-19{fill:#a64d2e;}.cls-20{fill:#7f3520;}.cls-21{fill:#cca795;}.cls-22{fill:#3f3f44;}.cls-23{fill:#314eaa;opacity:0.4;mix-blend-mode:multiply;}.cls-24{fill:#777a82;}.cls-25{fill:#37383b;}.cls-26{fill:#2c2d2f;}.cls-27{fill:#3d3e41;}.cls-28{fill:#252628;}.cls-29{fill:#333438;}</style></defs><title>353974-PBME5S-833</title><g class="cls-1"><g id="BACKGROUND"><rect class="cls-2" width="500" height="500"/></g><g id="OBJECTS"><path class="cls-3" d="M398.75,258.25H445c9.12,0,26.75,13.17,16.62,57.79s-24.74,104.45-24.74,104.45H276l36.29-162.24Z"/><path class="cls-4" d="M385.72,393.26c-2.77,1.08-8,0-8,0-.88,7.19-4,24.71-4,24.71H336.5l23-146.9,24.14-12.82h23.09c-7.51,9.49-20.07,20.12-31.34,27.13-1.08,5.39-4.75,21.69-4.75,21.69,10.14-3,43.59-15.28,42.15,9.56C411.36,339.68,402.16,361.61,385.72,393.26Z"/><path class="cls-4" d="M445,258.25c9.12,0,26.75,13.17,16.62,57.79s-24.74,104.45-24.74,104.45H396.76s14.48-61.5,25.89-110.57S438.75,258.25,445,258.25Z"/><path class="cls-5" d="M383.44,172.6c7.35-.07,29.12,1.72,32.6,13.67,2.55,10.91,1.44,32.74-3.2,47.3-3.18,8.82-37.89,44.37-51.68,46,2-16.91,3.39-76.4,3.39-76.4Z"/><path class="cls-6" d="M361.16,279.53c.37-3.09.71-7.61,1-12.91l20.18-35.32c1.14-4.77,3.15-12.64,3.15-14.43,6.84,2.24,10.93,14.49,13,24.34,3.26.5,10.39-3,14.34-7.64C409.66,242.39,375,277.94,361.16,279.53Z"/><path class="cls-7" d="M326.92,282.44l39.55-12.62-8.66,40.48c-16,14.31-23.09,16.52-26,14.39h0c-6.27-3.5-4-15-1.19-19Z"/><path class="cls-8" d="M330.78,306.65l-3.86-24.21,39.55-12.62-2,9.15C357.49,291.35,344.1,305.72,330.78,306.65Z"/><path class="cls-7" d="M285.11,210.9c.93,16,1,36-2,53.38,5.32,15.83,36,31,54.17,25.05,17-6.57,28.17-15.83,32.85-22.9,5.33,6,19.63,4.07,25.83-17.53,2.36-9.43-4.83-21.29-20.56-16.5,1.67-8.36-6.26-38.29-6.26-38.29s-45.7-7.27-76.15.55C287.47,196.92,284.8,204.48,285.11,210.9Z"/><path class="cls-9" d="M318.12,258.09c-3.08-3-7.49-5.2-11.93-3.49-2.39.81.53,4.92.53,4.92,1.07,1.51,8,1.63,11.94.55C319.34,259.56,318.12,258.09,318.12,258.09Z"/><path class="cls-8" d="M286.21,215l-1.08-3.81c0-.1,0-.2,0-.29-.31-6.42,2.36-14,7.92-16.24,30.45-7.82,76.15-.55,76.15-.55s7.93,29.93,6.26,38.29c1.28,6.07-4.08,21.79-6.8,24,1.13-3.86,1.24-16.35.56-22.44a217.5,217.5,0,0,0-4.85-24.76c-4.23,1.17-14.32,2.55-27.56.79C311.62,203.55,297,208.48,286.21,215Z"/><path class="cls-5" d="M380.75,171.85c.8-6.18,5.77-14.48,5.77-14.48,4.24-3.34,20.32-1.18,30.7,8.48-8-2.19-28.6-1.51-34.36,9.39C380,175.63,380.75,171.85,380.75,171.85Z"/><path class="cls-8" d="M354.28,229.29l-24.62,3.93C331,233.61,349.57,235.12,354.28,229.29Z"/><path class="cls-8" d="M336.25,236.74a5.71,5.71,0,1,0,4-7A5.71,5.71,0,0,0,336.25,236.74Z"/><path class="cls-5" d="M329.66,233.22c.93-2.28,7.17-5.08,13.91-5.52,3.53-.18,8.73,1.2,10.71,1.59Z"/><path class="cls-5" d="M334.94,236a5.71,5.71,0,1,0,4-7A5.71,5.71,0,0,0,334.94,236Z"/><path class="cls-8" d="M289.94,228.65c.31,1.55,1,2.91,4.47,4.26,2.69,1,10.59,3,10.59,3Z"/><path class="cls-8" d="M294.93,235.33c.66,2.42,2.61,4,4.34,3.53s2.6-2.82,1.94-5.25-2.6-4-4.34-3.53S294.27,232.9,294.93,235.33Z"/><path class="cls-5" d="M289.94,228.65c7.14-4.49,11.9,4.28,15.06,7.25Z"/><path class="cls-5" d="M294,234.44c.66,2.43,2.61,4,4.34,3.53s2.6-2.82,1.94-5.24-2.61-4-4.34-3.54S293.37,232,294,234.44Z"/><path class="cls-8" d="M392.72,250.58c.69-4.31.85-11.92-14.44-11.26a31.06,31.06,0,0,0-2.93,5.26c4-.58,13.14-3.08,15.25,1.46a27.89,27.89,0,0,1,1.2,6.66A6.4,6.4,0,0,0,392.72,250.58Z"/><path class="cls-8" d="M377.06,244.15c1.32,1,7.5,7.53-2.46,10,3.71.42,12.42-2.56,7-10.82C379.71,242.62,377.06,244.15,377.06,244.15Z"/><path class="cls-10" d="M310.89,242.37c-1.2,2.21-4.37,7.46-4.68,8.08-.2.84,5.92,1.71,6.56.32.77-1.74.85-9,.79-9.78C313.46,239.91,311.91,240.57,310.89,242.37Z"/><path class="cls-11" d="M330.11,230.37a7.92,7.92,0,0,1,2-2.26,18.82,18.82,0,0,1,2.44-1.72,21.3,21.3,0,0,1,2.67-1.31,11.8,11.8,0,0,1,2.88-.78c-1.7,1-3.36,2-5,3l-2.49,1.47A27,27,0,0,0,330.11,230.37Z"/><path class="cls-11" d="M305.48,234.84a11,11,0,0,0-1.14-1.75c-.43-.54-.86-1.08-1.32-1.61s-.92-1-1.39-1.55-1-1-1.48-1.48a8,8,0,0,1,1.8,1.15,12.58,12.58,0,0,1,1.52,1.49,11.36,11.36,0,0,1,1.25,1.75A5.46,5.46,0,0,1,305.48,234.84Z"/><path class="cls-12" d="M306.56,232a20,20,0,0,1-.65,7.29c0,.07-.07.13-.1.2l-.81,2h0a9.82,9.82,0,0,1-6.29,5,12.73,12.73,0,0,1-5,.31,12.36,12.36,0,0,1-8.31-5.65.57.57,0,0,0,0-.13c0-1.32,1.61-15.17,1.61-15.17l.05-.33C296.08,223.79,303.37,229.07,306.56,232Z"/><path class="cls-12" d="M285.47,241a.57.57,0,0,1,0,.13,17.06,17.06,0,0,1-1.53-3,29.8,29.8,0,0,1-1.76-11,21.62,21.62,0,0,1,3.55-1.32l-.67-2.48h0l.67,2.48c.48-.13.94-.23,1.41-.32l-.05.33S285.51,239.7,285.47,241Z"/><path class="cls-12" d="M338.39,225a36.39,36.39,0,0,1,22.07.85,26.43,26.43,0,0,1-.72,10.82c-1.81,6-6,9.81-12.68,11.64-.41.11-.82.22-1.24.31-4.48.65-10.69.58-15.12-3.28a14.74,14.74,0,0,1-4.05-6.13l.11-.1-.23-.25a26.45,26.45,0,0,1-1.36-7.5A41.48,41.48,0,0,1,338.39,225Z"/><polygon class="cls-12" points="284.67 222 284.58 221.65 284.67 222 284.67 222"/><path class="cls-8" d="M285.46,241.15c0,1.14-.26,4.52-.37,6.16a15.72,15.72,0,0,0,14.77,3.37,14.43,14.43,0,0,0,10.06-9.75,4.23,4.23,0,0,1,3.38-2.37c3.68-.67,8.09,1.1,8.79,1.86l.61.67c3.77,9.69,12.78,13.45,23.91,11.79.55-.12,1.07-.25,1.59-.39,11.84-3.23,15.72-11.66,16.62-19a24.5,24.5,0,0,0,4.21-.55c1.1-.3,4.45-6.2,3.18-8.88-2.33-1.22-11.67-3.86-18.48-4.29h0a40.53,40.53,0,0,0-16.5,1.05,45.32,45.32,0,0,0-16.45,8.45,37.87,37.87,0,0,0,.4,5.91,18.16,18.16,0,0,0-8.65-.87,11.22,11.22,0,0,0-1.59.42,29.72,29.72,0,0,0-.24-4.8c-3.7-3.74-12.24-10.27-23-8.87-.22,1.57-.51,3.69-.62,4.48,8.95-1.73,16.24,3.55,19.43,6.43a20,20,0,0,1-.65,7.29c0,.07-.07.13-.1.2l-.81,2h0a9.82,9.82,0,0,1-6.29,5,12.73,12.73,0,0,1-5,.31A12.36,12.36,0,0,1,285.46,241.15Zm39.71-9.8A41.48,41.48,0,0,1,338.39,225a36.39,36.39,0,0,1,22.07.85,26.43,26.43,0,0,1-.72,10.82c-1.81,6-6,9.81-12.68,11.64-.41.11-.82.22-1.24.31-4.48.65-10.69.58-15.12-3.28a14.74,14.74,0,0,1-4.05-6.13l.11-.1-.23-.25A26.45,26.45,0,0,1,325.17,231.35Z"/><path class="cls-8" d="M327.73,219.86a2.54,2.54,0,0,1-3-1.26,5.27,5.27,0,0,1,2.85-7.1c5.4-2.36,28.91-4.33,40.94,12.26C364.16,221.37,350.21,213.5,327.73,219.86Z"/><path class="cls-5" d="M325.8,218.79a2.21,2.21,0,0,1-2.53-.72,5.27,5.27,0,0,1,2.24-7.71c5.28-2.6,28.67-5.64,41.45,10.39C362.51,218.55,348.12,211.27,325.8,218.79Z"/><path class="cls-8" d="M306.67,213.13c-5.25-2.64-20-3.1-23,4.9.21,1.08,1.67,1.41,3.08.68,2.42-1.59,11.32-1.54,21.78,1.73C310.45,220.21,310.89,215.38,306.67,213.13Z"/><polygon class="cls-5" points="366.78 199.52 366.78 199.52 366.78 199.52 366.78 199.52"/><path class="cls-5" d="M375.81,232.17c1.05-5.83-.33-14.13-1.94-19.54a57.32,57.32,0,0,0,9-13.17l11.19,12.1s-7.64,17.23-11.71,19.74c-1,5.71-10.31,21.68-12.21,22.62C370.16,253.92,374.87,236.7,375.81,232.17Z"/><path class="cls-6" d="M372.35,231.71c-.06-7.32-5.57-32.19-5.57-32.19l16.66-26.92c3.51,7.2,4.53,16.27-.55,26.86a57.32,57.32,0,0,1-9,13.17c1.61,5.41,3,13.71,1.94,19.54-.94,4.53-5.65,21.75-5.65,21.75S371.64,239.27,372.35,231.71Z"/><path class="cls-5" d="M382.32,169c2.71,6.78,7.37,20.22-14.88,33.54-12.63,2.66-26.17,1.11-44.29-3.83-7.64-2-22.45-3.33-31.25.58-2.34,4.72-6.31,37.76-6.38,39.58-10.88-13.15-24-36-26.95-49.17.8-7.31,7.68-26.18,7.68-26.18,3.6-5.71,49.13-28.68,70.87-32.47C347.89,128.79,365.19,133.09,382.32,169Z"/><path class="cls-6" d="M364.15,184.49c.84.17,1.67.35,2.53.49A15.66,15.66,0,0,1,364.15,184.49Z"/><path class="cls-6" d="M258.57,189.74c.37-3.42,2.07-9.35,3.78-14.71,14.51-12.32,41.54-14.25,52.24-7.13,23.19,17.74,36.41,19.28,50.11,19.75-23.75,4-43.29-4.61-58.72-10.71-18.88-6.88-41.85,9.71-45.68,18.61A51.52,51.52,0,0,1,258.57,189.74Z"/><path class="cls-6" d="M276.17,215.33c3.6-17.36,14.35-19.14,27.2-18.41h0a34,34,0,0,0-11.47,2.41c-1.92,3.88-4.94,26.8-6,35.92h0S276.48,218.67,276.17,215.33Z"/><path class="cls-5" d="M308.23,211.88c-5.11-3-19.78-4.54-23.18,3.24.15,1.08,1.6,1.52,3,.89,2.5-1.41,11.38-.72,21.65,3.3C311.64,219.22,312.33,214.42,308.23,211.88Z"/><path class="cls-6" d="M390.14,220.23c-1.85,3.19-5.06,10.33-7.77,11.07,1.89-4.19,3.15-12.64,3.15-14.43A10.92,10.92,0,0,1,390.14,220.23Z"/><path class="cls-13" d="M361.06,224.05s-23.35-8.61-40,6.6c1.18,6.93,5.83,20.41,21.19,18.16C353.45,246.6,361.58,240.24,361.06,224.05Z"/><path class="cls-13" d="M306.41,230.51c-3.65-3.46-14.37-12.1-27.63-5.44-.41,5.48,1.52,18.81,12,21.56C296.23,247.73,306.78,245.59,306.41,230.51Z"/><path class="cls-10" d="M324.64,231.81a7.6,7.6,0,1,0,5.34-9.34A7.6,7.6,0,0,0,324.64,231.81Z"/><path class="cls-10" d="M278.82,230.6a6.34,6.34,0,1,0,4.44-7.79A6.33,6.33,0,0,0,278.82,230.6Z"/><polygon class="cls-14" points="282.61 220.44 282.61 220.44 282.61 220.44 282.61 220.44"/><path class="cls-15" d="M274.67,233.53a7.77,7.77,0,0,0,1.91.35c1.44,7,5.35,14.19,14.52,16a17.2,17.2,0,0,0,6.8-.41A14.46,14.46,0,0,0,308,239.72a4.2,4.2,0,0,1,3.37-2.37c3.69-.66,8.1,1.1,8.8,1.86l.61.67c3.76,9.69,12.78,13.45,23.91,11.8l1.59-.4c11.83-3.23,15.72-11.66,16.62-19a24.45,24.45,0,0,0,4.21-.56c1.09-.3,4.45-6.2,3.17-8.87-2.32-1.23-11.66-3.87-18.47-4.3h0a40.52,40.52,0,0,0-16.5,1.05A45.23,45.23,0,0,0,318.83,228a37.87,37.87,0,0,0,.4,5.91,18.17,18.17,0,0,0-8.65-.87,10.87,10.87,0,0,0-1.59.42,30.91,30.91,0,0,0-.24-4.8c-4.06-4.1-13.94-11.59-26.14-8.26h0l.1.35h0l-.1-.35a26.44,26.44,0,0,0-4.39,1.66,29.48,29.48,0,0,0-6.25,2.82C271.12,227.57,273.84,233.27,274.67,233.53Zm50,4.46-.06-.13-.06-.22a26.45,26.45,0,0,1-1.36-7.49,41.39,41.39,0,0,1,13.21-6.37,36.38,36.38,0,0,1,22.07.85,26.4,26.4,0,0,1-.71,10.82c-1.82,6-6,9.81-12.69,11.65-.4.1-.81.21-1.23.3-4.48.65-10.69.58-15.12-3.28A14.65,14.65,0,0,1,324.69,238Zm-44.48-12a21.29,21.29,0,0,1,3.55-1.32l-.68-2.48h0l.68,2.48c9.59-2.62,17.48,3.08,20.83,6.11A19.77,19.77,0,0,1,304,238c0,.07-.07.13-.1.2l-.81,2h0a9.82,9.82,0,0,1-6.3,5,12.68,12.68,0,0,1-4.94.31c-4.72-1-7.94-3.81-9.85-8.67A29.56,29.56,0,0,1,280.21,226Z"/><polygon class="cls-6" points="282.61 220.44 282.61 220.44 282.61 220.44 282.61 220.44"/><polygon class="cls-6" points="280.73 219.81 280.73 219.81 280.73 219.81 280.73 219.81"/><path class="cls-16" d="M332.59,246.44a14,14,0,0,1-5.74-2.94,14.88,14.88,0,0,1-4.05-6.14l0-.12-.07-.22a26.23,26.23,0,0,1-1.37-7.5,41.58,41.58,0,0,1,13.22-6.37,36.46,36.46,0,0,1,22.07.86v0a36.11,36.11,0,0,0-20.19-.27,41.39,41.39,0,0,0-13.21,6.37,26.45,26.45,0,0,0,1.36,7.49l.06.22.06.13a14.65,14.65,0,0,0,4.05,6.13A13.23,13.23,0,0,0,332.59,246.44Z"/><path class="cls-16" d="M308.7,232.45a10.55,10.55,0,0,0-1.59.43,31.1,31.1,0,0,0-.25-4.81,32.94,32.94,0,0,0-11.46-7.49,32.25,32.25,0,0,1,13.35,8.12,30.41,30.41,0,0,1,.23,3.72Z"/><path class="cls-16" d="M289.21,244.78c-4.32-1.11-7.32-3.88-9.13-8.48a29.6,29.6,0,0,1-1.75-11,23.12,23.12,0,0,1,3.54-1.32l-.67-2.47h0l.68,2.47c.54-.15,1.08-.26,1.61-.36l.27,1a21.29,21.29,0,0,0-3.55,1.32,29.56,29.56,0,0,0,1.75,11A13.12,13.12,0,0,0,289.21,244.78Z"/><path class="cls-16" d="M283.76,224.63l-.27-1A19.58,19.58,0,0,1,294,224.72,18.9,18.9,0,0,0,283.76,224.63Z"/><path class="cls-16" d="M274.7,233.26c0,.1.05.2.07.31l-.1,0a1,1,0,0,1-.38-.32Z"/><path class="cls-16" d="M342.76,251.05q.83-.18,1.59-.39c11.84-3.23,15.72-11.66,16.63-19a23.62,23.62,0,0,0,4.21-.56c1.09-.3,4.45-6.19,3.17-8.87a16,16,0,0,0-1.79-.74,24,24,0,0,1,3.67,1.37c1.28,2.67-2.08,8.57-3.17,8.87a24.45,24.45,0,0,1-4.21.56c-.9,7.36-4.79,15.79-16.62,19l-1.59.4a26.54,26.54,0,0,1-13.38-1.09A28,28,0,0,0,342.76,251.05Z"/><path class="cls-16" d="M289.22,249.26a17.14,17.14,0,0,0,6.79-.42,14.39,14.39,0,0,0,10.06-9.75,4.2,4.2,0,0,1,3.38-2.36,13.86,13.86,0,0,1,7.19,1,12.74,12.74,0,0,0-5.31-.35,4.2,4.2,0,0,0-3.37,2.37,14.46,14.46,0,0,1-10.06,9.75,17.2,17.2,0,0,1-6.8.41,18,18,0,0,1-3.31-1C288.25,249,288.73,249.16,289.22,249.26Z"/><path class="cls-10" d="M343.53,241.58c.29,1.08,1.76,1.62,3.29,1.21s2.51-1.64,2.22-2.72-1.77-1.62-3.3-1.21S343.23,240.49,343.53,241.58Z"/><path class="cls-10" d="M291.89,240.79c.24.85,1.43,1.27,2.68.93s2.06-1.31,1.82-2.16-1.42-1.27-2.67-.93S291.66,239.94,291.89,240.79Z"/><path class="cls-17" d="M365.76,224.48a7,7,0,0,0-3.17-.67c-.59.29,0,3.1,0,3.1.41.38,2.44,0,2.55-.09A2.6,2.6,0,0,0,365.76,224.48Z"/><path class="cls-17" d="M273.57,226.39a5.07,5.07,0,0,1,2.33-.56c.44.2.08,2.29.08,2.29-.29.28-1.8,0-1.88,0A1.92,1.92,0,0,1,273.57,226.39Z"/><path class="cls-8" d="M328.48,275.22a5.44,5.44,0,0,1-1.75,1.19,8.93,8.93,0,0,1-2,.63,10.35,10.35,0,0,1-2.08.15,4.88,4.88,0,0,1-2.07-.47l2-.46c.65-.15,1.3-.27,1.94-.4C325.81,275.64,327.06,275.4,328.48,275.22Z"/><path class="cls-18" d="M332,273.5a5,5,0,0,0-2.32-1.06,17.56,17.56,0,0,0-2.52-.34c-1.71-.11-3.44-.07-5.18,0-3.48.08-7,.32-10.58.35a21.56,21.56,0,0,1,5.15-1.68,30.39,30.39,0,0,1,5.38-.63,21.9,21.9,0,0,1,5.46.48,11.13,11.13,0,0,1,2.64,1A4.12,4.12,0,0,1,332,273.5Z"/><path class="cls-19" d="M380.49,300.41c-15.66,1.84-21.54,4.53-21.54,4.53-5.12,9-16.57,17.31-27.68,14.65-3.11-1-3.87-7.54-.49-12.94l-.45-2.82c-2-.66-5.49-1.94-7.36-2.35-1.26,2.47-26.26,49.63-26.26,49.63C294.28,361.39,272.77,418,272.77,418h87.94l15.87-80.46Z"/><path class="cls-20" d="M355,320.25l18,35.05-9.67,49.05c-8.29,6.62-23.92,8.47-23.92,8.47H279.07s10.19-6.31,9.25-17.42c8.09-2.07,38.55-17.37,44.38-21.63,0,0-1.31-2.52-1.88-3.65C333.83,363,348.51,333.74,355,320.25Z"/><path class="cls-21" d="M323,301.48c-7.37-3.05-30,10.31-39.63,21.37-11,8.75-46.82,41.14-53.45,45.5-8.59,5.15-37.49,32.9-63.76,34.28.46,6,4.66,5.07,4.66,5.07l45.9-1.48c26.13-9.87,75.87-49.43,80-55.11C303.62,339.44,323,301.48,323,301.48Z"/><path class="cls-19" d="M323,301.48c-7.42-2.33-26.16,5-52.89,30.45-4.47,4.24-21,19.31-21,19.31,4.05,8.07,15,21.31,23.74,22.53,22.7-20.18,23.94-22.66,23.94-22.66S320.48,314.65,323,301.48Z"/><path class="cls-20" d="M296.71,351.11c2.27-7,11.31-25.72,11.31-25.72-10.93,12.19-18.71,30.27-45.62,44.78.84,3.57,5.83,6.52,5.83,6.52C272.77,373.77,291.28,357.5,296.71,351.11Z"/><path class="cls-22" d="M276.75,412.82c-2.11-17.44-54.62-33.39-57.58,0Z"/><path class="cls-7" d="M369.34,303c-19.54,17.73-25,59.08-33.17,74.08-8.64,6.36-45.43,17.21-52.38,18.47a29.38,29.38,0,0,1-6,.32c-9-3.4-17.87-6.9-23.22-7.81-3.6-.61-17.2-2.68-19.19-2.43-2.41.33-10,9.2-10,9.2.67,1.75,3.73,2.41,7.05,0a37.66,37.66,0,0,0,3.57-2.9c2.9.5,6.14,1.08,6.14,1.08-2.16.91-9.46,5.13-10,5.47-1.58,1.25-6.3,5.4-6.3,5.4-1.5,1.49.58,2.75,2.9,1.95,2.49-.79,7.38-4.11,7.38-4.11-.9.59-4.56,4.31-5.06,5.47-.66,1.33-.16,4.32,4.9.75,3-2.24,6.72-4.81,6.72-4.81,1-.83,5-2.24,5-2.24a21.85,21.85,0,0,1,2.32-.5,34.32,34.32,0,0,0-6.25,4.28,55.46,55.46,0,0,0-3.52,4.63c.25,1.16,2.69,1.92,5.76-1.07,2.4-2.32,7.44-3.82,9.31-4.07s6.22,4.89,8,5.76c2.39,1.05,4.71,2.05,12.84.9,3.9.25,5.51.2,8.9.51,17.62.66,69-4.26,75.35-12.44,6.36-6.81,35.45-56.35,39.09-72.71C402.52,302.07,380.7,298.89,369.34,303Z"/><path class="cls-19" d="M369.34,303c9.49-4.31,36.1-7.46,30.31,26.49-2.47,10.82-24,57-24,57-7.71,1.36-27-.33-40.58-14.74C340.16,359.29,350,316.47,369.34,303Z"/><path class="cls-23" d="M236,401.7a12.35,12.35,0,0,0-1.46,1.29Z"/><path class="cls-23" d="M236,401.7c1.52-1,5.33-3.17,5.33-3.17A24,24,0,0,0,244,397.1a33.06,33.06,0,0,0-4.36,1,89.55,89.55,0,0,0-8.61,5.18c-.88.52-4,2.46-5.5,2.21a3.16,3.16,0,0,0,3.12.31C231.12,405,236,401.7,236,401.7Z"/><path class="cls-23" d="M247.54,400.87a21.85,21.85,0,0,1,2.32-.5c1-.3,2-.56,2-.56a10.33,10.33,0,0,0-3.81-.32,12.67,12.67,0,0,0-6.05,2.12c-1.43,1.21-8.23,7.7-10.47,7.92.75.25,2.09-.07,4.28-1.61,3-2.24,6.72-4.81,6.72-4.81C243.56,402.28,247.54,400.87,247.54,400.87Z"/><path class="cls-10" d="M271.73,199.52c5.87-6.6,21.78-17.16,55.16-4C312,193.08,280.19,188.12,272,210c4.47,8.23,7.62,11.51,7.62,11.51-1.45.64-4.74,3.22-4.21,4.94s2.21,16.75,13.31,20.51a169.8,169.8,0,0,1-2.29,17.49c5.54,6.86,19.16,23.52,46,26,.15,7.42-.51,19.89-.51,19.89l-1.2-3.62c-3.1-.21-17.81-4-35.08,15.61s-72,62-72,62-23.47,15.58-41.17,23l-11.79.38s-4.19.92-4.66-5.07c26.27-1.38,55.17-29.13,63.76-34.28,2.76-1.81,10.58-8.49,19.56-16.3-.15-.28-.29-.54-.42-.81,0,0,16.58-15.07,21.05-19.31,23.06-21.91,40.16-30.4,49.19-30.83a7.92,7.92,0,0,1,3.7.38c1.88.41,5.32,1.69,7.36,2.35l-2.1-13.19H328l-.69,0c-.82,0-1.65-.07-2.48-.14-.57-.05-1.15-.11-1.72-.18-.87-.11-1.75-.24-2.62-.4a58.19,58.19,0,0,1-8.54-2.25l-.46-.16-.75-.28c-1.12-.41-2.24-.85-3.35-1.33a62.89,62.89,0,0,1-7.27-3.72l-.51-.29a48.13,48.13,0,0,1-12.25-10.24s0,0-.05-.05a28.34,28.34,0,0,1-2.88-4.27.43.43,0,0,0,0-.07c-.24-.45-.45-.9-.65-1.36l-.06-.12c-.19-.42-.35-.85-.5-1.28,0-.07-.05-.13-.07-.2h0c.21-1.28.41-2.57.59-3.88l.15-1.12c.13-1,.26-2,.38-3,0-.12,0-.24,0-.35s0-.46.07-.69c.24-2.14.44-4.31.6-6.49v-.06l.06-1.14c-5-3.12-7.4-8.43-8.47-13.65a7.87,7.87,0,0,1-1.92-.35.44.44,0,0,1-.17-.1l-.2-.21h0c-1.06-1.28-3.07-6-2.31-8.29a15,15,0,0,1,2.57-1.37,175.78,175.78,0,0,1-11.11-20.32l0,0c-.37-.81-.73-1.61-1.07-2.4,0,0,0-.1-.05-.14-.32-.73-.61-1.45-.9-2.16a1.8,1.8,0,0,0-.08-.21c-.28-.71-.55-1.41-.8-2.09,0-.13-.08-.25-.13-.37-.22-.63-.44-1.25-.64-1.86l-.06-.18c-.2-.64-.39-1.25-.56-1.86,0-.14-.08-.28-.11-.41s-.08-.28-.11-.41h0c-.13-.46-.24-.92-.34-1.36,0-.22,0-.46.09-.7,0-.08,0-.17,0-.26s.05-.32.08-.49l.06-.32.09-.49c0-.12.05-.24.07-.36s.07-.33.11-.5a.52.52,0,0,1,0-.11l.06-.28.12-.51c0-.14.06-.28.1-.42l.12-.51c0-.15.07-.3.11-.44s.09-.36.14-.53l.12-.47c0-.17.09-.34.14-.52s.08-.33.13-.49.1-.35.14-.53.1-.33.14-.5.11-.36.16-.54.09-.34.14-.51l.15-.52c.06-.18.11-.36.17-.54l.15-.51c0-.15.09-.3.13-.45l0-.1c0-.17.11-.34.16-.51s.11-.36.17-.55l.15-.51c.13-.4.26-.8.38-1.2,0-.11.07-.23.11-.34h0l.36-1.12.67-2.06c.34-1,.66-2,1-2.83.22-.67.44-1.28.63-1.85.77-2.19,1.28-3.61,1.28-3.61a15.73,15.73,0,0,1,3.82-3.33l.69-.47c1.18-.8,2.55-1.67,4.09-2.59.43-.26.88-.53,1.34-.79q1.92-1.12,4.11-2.33l1.46-.8,2-1.06c1.32-.7,2.69-1.4,4.09-2.12L290,149l3.11-1.52c1-.51,2.1-1,3.16-1.51l1.39-.65,2.15-1,2.05-.93c3.29-1.47,6.63-2.9,9.94-4.24l1.41-.57c8.93-3.55,17.48-6.37,23.94-7.49h0c.48-.11,1-.19,1.49-.26l.27,0c.53-.07,1.06-.13,1.62-.16h0a22.22,22.22,0,0,1,3.72.07h0c-22.83,7.17-49.47,21.48-65.16,31.32C274.73,168.13,269.52,190.94,271.73,199.52Z"/><rect class="cls-24" x="76.12" y="246.03" width="204.19" height="132.03" rx="8.95" transform="translate(356.43 624.09) rotate(180)"/><rect class="cls-22" x="64.04" y="246.03" width="204.19" height="132.03" rx="8.95" transform="translate(332.27 624.09) rotate(180)"/><rect class="cls-25" x="99.48" y="280.84" width="113.42" height="70.4" rx="6.87" transform="translate(312.37 632.08) rotate(180)"/><rect class="cls-26" x="88.8" y="281.43" width="113.42" height="70.4" rx="6.87" transform="translate(291.02 633.27) rotate(180)"/><rect class="cls-27" x="127.39" y="301.04" width="36.24" height="101.6" transform="translate(291.02 703.67) rotate(180)"/><rect class="cls-28" x="127.39" y="301.04" width="28.09" height="101.6" transform="translate(282.87 703.67) rotate(180)"/><rect class="cls-24" x="107.19" y="402.63" width="112.88" height="9.8" transform="translate(327.26 815.07) rotate(180)"/><rect class="cls-29" x="89.07" y="402.63" width="112.88" height="9.8" transform="translate(291.02 815.07) rotate(180)"/><rect class="cls-4" x="46.98" y="412.44" width="412.83" height="16.1" transform="translate(506.79 840.97) rotate(180)"/><path class="cls-23" d="M232.36,394.81a37.66,37.66,0,0,0,3.57-2.9c2.9.5,6.14,1.08,6.14,1.08,1.05-.42,3.52-1.28,3.52-1.28-1.56-.57-9.58-2.26-9.58-2.26-2,1.52-7.25,6.76-9.19,6.71C228.17,396.64,230.21,396.37,232.36,394.81Z"/><path class="cls-23" d="M364.55,279l.07-.36c4.24-1.61,9.57-5.12,15.15-9.55,4.29-1,9-4.35,12.69-11.18,10.19-9.79,18.9-20.1,20.42-24.31,4.64-14.56,5.75-36.39,3.2-47.3-3.3-11.33-23-13.53-31.34-13.66,7.44-8.36,25.27-8.76,32.51-6.76-10.38-9.66-26.45-11.82-30.7-8.48a58.94,58.94,0,0,0-4.8,10.44c-13.54-27.82-27.13-36.08-37.48-37.11h0a22.21,22.21,0,0,0-3.72-.07h0c-.55,0-1.09.09-1.62.16l-.27,0c-.5.07-1,.15-1.48.26h0c-6.46,1.12-15,3.94-23.94,7.49l-1.41.57c-3.3,1.34-6.64,2.77-9.94,4.24l-2.05.93-2.15,1-1.38.65-3.17,1.51L290,149l-2.15,1.08-2.6,1.34c14.48-.27,30.82,4.88,53.73,21.19,8.11,7.1,36.05,20.23,44.39,13.67-1.63,6.25-10.95,19-29.07,17.59,1.81,5.27.61,74.94-29.41,86.62.84.07,1.67.12,2.49.14l.68,0h.18a29.47,29.47,0,0,0,9.1-1.31c1.68,6.19,4.69,17.2,2.47,30.92,11.11-4.21,24.89-9.45,32.7,0,5.91,7.07-25.8,60.4-25.8,60.4a24.34,24.34,0,0,0,7.59,3.35,53,53,0,0,0,14.32,2.82,32.59,32.59,0,0,0,7.07-.33s21.51-46.2,24-57c4.85-28.42-13-30.84-24.52-28.34-11.67,1.75-16.18,3.81-16.18,3.81l5.56-26Z"/><path class="cls-23" d="M293.62,407.11c-2.18,0-12.91.38-17.18-.48-4.22.7-6.7,1.57-13.72-1.3-3-1.8-6.73-4.27-10.54-2.26-2.05.93-5.14,1.7-7.19,4.06-1,1.24-2.93,3.07-4,3.06,1,.33,2.78,0,4.81-2,2.4-2.32,7.44-3.82,9.31-4.07s6.22,4.89,8,5.76c2.39,1.05,4.71,2.05,12.84.9,3.9.25,5.51.2,8.9.51,17.62.66,69-4.26,75.35-12.44,1.6-1.71,4.65-6.14,8.36-12.05A53.26,53.26,0,0,1,354.32,384C349.49,390.93,335.63,405.67,293.62,407.11Z"/></g></g></svg>