<svg id="Ebene_1" data-name="Ebene 1" xmlns="http://www.w3.org/2000/svg" viewBox="0 0 900 909.3"><defs><style>.cls-1{fill:#81858a;}.cls-2{fill:#d0d6db;}.cls-3{fill:#3e3d40;}.cls-4{fill:#eceded;}.cls-5{fill:#87888a;}.cls-6{fill:#b1b3b4;}.cls-7{fill:#58585a;}</style></defs><title>OE60WU1</title><polygon class="cls-1" points="387.64 493.07 230.85 493.07 239.82 425.61 379.95 425.61 387.64 493.07"/><path class="cls-2" d="M150.05,514.46v41.65a15.42,15.42,0,0,0,15.38,15.38H753.06a15.42,15.42,0,0,0,15.37-15.38V514.46Z" transform="translate(-150 -145.35)"/><path class="cls-3" d="M768.43,160.73a15.42,15.42,0,0,0-15.37-15.38H165.43a15.42,15.42,0,0,0-15.38,15.38V514.46H768.43Z" transform="translate(-150 -145.35)"/><rect class="cls-4" x="21.83" y="20.51" width="574.82" height="328.1"/><polygon class="cls-2" points="230.85 493.07 387.64 493.07 415.21 499.59 203.27 499.75 230.85 493.07"/><polygon class="cls-1" points="413.77 503.21 204.71 503.21 203.32 499.75 415.21 499.59 413.77 503.21"/><path class="cls-3" d="M470.24,544.79a11,11,0,1,1-11-11A11,11,0,0,1,470.24,544.79Z" transform="translate(-150 -145.35)"/><path class="cls-3" d="M972.69,766.5H590.45a9.66,9.66,0,0,0-9.63,9.63v254.74h401.5V776.13A9.67,9.67,0,0,0,972.69,766.5Z" transform="translate(-150 -145.35)"/><rect class="cls-4" x="448.68" y="637.75" width="366.18" height="235.28"/><polygon class="cls-1" points="875.35 909.3 387.12 909.3 363.02 900.47 899.44 900.47 875.35 909.3"/><path class="cls-5" d="M782.9,776.44a1.71,1.71,0,1,1-1.7-1.71A1.7,1.7,0,0,1,782.9,776.44Z" transform="translate(-150 -145.35)"/><rect class="cls-6" x="587.6" y="885.48" width="86.93" height="8.83"/><path class="cls-2" d="M817.64,1030.83V1034a4,4,0,0,1-4,4h-65a4,4,0,0,1-4-4v-3.21H513v15h536.42v-15Z" transform="translate(-150 -145.35)"/><path class="cls-3" d="M411.53,844.08a12.17,12.17,0,0,1,12.14,12.15v186.28a12.18,12.18,0,0,1-12.14,12.14H162.15A12.19,12.19,0,0,1,150,1042.51V856.23a12.18,12.18,0,0,1,12.15-12.15Z" transform="translate(-150 -145.35)"/><rect class="cls-4" x="23.29" y="719.15" width="227.11" height="169.74"/><path class="cls-7" d="M162.49,946.66a2.7,2.7,0,1,1-2.7,2.7A2.71,2.71,0,0,1,162.49,946.66Z" transform="translate(-150 -145.35)"/><path class="cls-5" d="M411.19,944.64a4.73,4.73,0,1,1-4.72,4.72A4.73,4.73,0,0,1,411.19,944.64Z" transform="translate(-150 -145.35)"/><rect class="cls-3" x="781.63" y="29.58" width="72.96" height="153.56" rx="11.36"/><rect class="cls-4" x="786.98" y="50.55" width="62.25" height="112.28"/><path class="cls-5" d="M973.23,317.24a5.13,5.13,0,1,1-5.12-5.12A5.13,5.13,0,0,1,973.23,317.24Z" transform="translate(-150 -145.35)"/><path class="cls-7" d="M973.59,188.69a1.55,1.55,0,0,1-1.53,1.54h-9.55a1.55,1.55,0,0,1-1.54-1.54h0a1.53,1.53,0,0,1,1.54-1.52h9.55a1.53,1.53,0,0,1,1.53,1.52Z" transform="translate(-150 -145.35)"/><rect class="cls-3" y="562.9" width="153.56" height="72.96" rx="11.36"/><rect class="cls-4" x="20.97" y="568.25" width="112.28" height="62.25"/><path class="cls-5" d="M292.31,739.61a5.12,5.12,0,1,1-5.12,5.12A5.13,5.13,0,0,1,292.31,739.61Z" transform="translate(-150 -145.35)"/><path class="cls-7" d="M163.76,739.24a1.54,1.54,0,0,1,1.53,1.53v9.55a1.54,1.54,0,0,1-1.53,1.54h0a1.54,1.54,0,0,1-1.53-1.54v-9.55a1.54,1.54,0,0,1,1.53-1.53Z" transform="translate(-150 -145.35)"/><path class="cls-3" d="M1050,680.36a12.18,12.18,0,0,1-12.15,12.15H851.57a12.18,12.18,0,0,1-12.14-12.15V431a12.19,12.19,0,0,1,12.14-12.15h186.28A12.18,12.18,0,0,1,1050,431Z" transform="translate(-150 -145.35)"/><rect class="cls-4" x="709.84" y="296.77" width="169.74" height="227.11"/><path class="cls-7" d="M947.42,431.32a2.7,2.7,0,1,1-2.7-2.69A2.7,2.7,0,0,1,947.42,431.32Z" transform="translate(-150 -145.35)"/><path class="cls-5" d="M949.44,680a4.73,4.73,0,1,1-4.72-4.73A4.73,4.73,0,0,1,949.44,680Z" transform="translate(-150 -145.35)"/></svg>